SplineFontDB: 3.0
FontName: GoudyBookletter1911
FullName: Goudy Bookletter 1911
FamilyName: Goudy Bookletter 1911
Weight: Regular
Copyright: Copyright (c) 2009 Barry Schwartz\n\nPermission is hereby granted, free of charge, to any person obtaining a copy\nof this software and associated documentation files (the "Software"), to deal\nin the Software without restriction, including without limitation the rights\nto use, copy, modify, merge, publish, distribute, sublicense, and/or sell\ncopies of the Software, and to permit persons to whom the Software is\nfurnished to do so, subject to the following conditions:\n\nThe above copyright notice and this permission notice shall be included in\nall copies or substantial portions of the Software.\n\nTHE SOFTWARE IS PROVIDED "AS IS", WITHOUT WARRANTY OF ANY KIND, EXPRESS OR\nIMPLIED, INCLUDING BUT NOT LIMITED TO THE WARRANTIES OF MERCHANTABILITY,\nFITNESS FOR A PARTICULAR PURPOSE AND NONINFRINGEMENT. IN NO EVENT SHALL THE\nAUTHORS OR COPYRIGHT HOLDERS BE LIABLE FOR ANY CLAIM, DAMAGES OR OTHER\nLIABILITY, WHETHER IN AN ACTION OF CONTRACT, TORT OR OTHERWISE, ARISING FROM,\nOUT OF OR IN CONNECTION WITH THE SOFTWARE OR THE USE OR OTHER DEALINGS IN\nTHE SOFTWARE.\n
UComments: "14pt handset: cut 3200-dpi samples 640 pixels high.+AAoACgAA-11pt: cut 3200-dpi samples 640 pixels high, then scale them to about 112%." 
Version: 001.000
ItalicAngle: 0
UnderlinePosition: -204
UnderlineWidth: 102
Ascent: 1548
Descent: 500
LayerCount: 3
Layer: 0 0 "Back"  1
Layer: 1 0 "Fore"  0
Layer: 2 0 "backup"  1
NeedsXUIDChange: 1
XUID: [1021 658 797806517 11473725]
FSType: 0
OS2Version: 0
OS2_WeightWidthSlopeOnly: 0
OS2_UseTypoMetrics: 1
CreationTime: 1249326201
ModificationTime: 1250888809
OS2TypoAscent: 0
OS2TypoAOffset: 1
OS2TypoDescent: 0
OS2TypoDOffset: 1
OS2TypoLinegap: 184
OS2WinAscent: 0
OS2WinAOffset: 1
OS2WinDescent: 0
OS2WinDOffset: 1
HheadAscent: 0
HheadAOffset: 1
HheadDescent: 0
HheadDOffset: 1
OS2Vendor: 'PfEd'

StartChar: a
Encoding: 97 97 0
Width: 851
VWidth: 6
Flags: HW
HStem: -23 80<259 463> -12 116<613 789> 787 86<258 462>
VStem: 70 156<86 329> 510 146<110 403 472 741>
LayerCount: 3
Fore
SplineSet
70 172 m 0
 70 361 198 413 299 437 c 0
 469 477 510 462 510 526 c 2
 510 582 l 2
 510 689 479 787 355 787 c 0xb8
 211 787 242 626 140 626 c 0
 99 626 71 663 71 705 c 0
 71 814 251 873 380 873 c 0
 547 873 656 766 656 618 c 2
 656 218 l 2
 656 121 702 104 718 104 c 0
 795 104 806 172 822 172 c 0
 836 172 844 164 844 147 c 0
 844 58 763 -12 668 -12 c 0x78
 559 -12 534 82 534 82 c 1
 532 80 484 -23 303 -23 c 0
 189 -23 70 8 70 172 c 0
226 220 m 0
 226 127 252 57 357 57 c 0xb8
 436 57 510 108 510 206 c 2
 510 403 l 1
 290 364 226 363 226 220 c 0
EndSplineSet
EndChar

StartChar: b
Encoding: 98 98 1
Width: 982
VWidth: 1000
Flags: HMW
HStem: -12 75<335.106 649.578> 741 120<380.693 641.643> 1398 20G<242 274>
VStem: 132 156<103.107 692.909 730 1226.88> 799 143<244.275 572.128>
LayerCount: 3
Fore
SplineSet
19 1290 m 0
 19 1349 69 1349 215 1410 c 0
 223 1414 237 1418 247 1418 c 0
 301 1418 311 1395 311 1346 c 0
 311 1259 294 998 284 730 c 1
 300 745 372 861 550 861 c 0
 745 861 942 728 942 450 c 0
 942 252 828 -12 478 -12 c 0
 368 -12 300 5 241 5 c 0
 198 5 194 -36 167 -36 c 0
 148 -36 132 -28 132 5 c 0
 132 26 142 498 142 969 c 0
 142 1050 141 1164 141 1205 c 0
 141 1221 83 1233 44 1251 c 0
 28 1258 19 1273 19 1290 c 0
288 245 m 2
 288 124 320 63 486 63 c 0
 704 63 799 213 799 372 c 0
 799 584 679 741 481 741 c 0
 416 741 373 721 344 702 c 0
 289 665 288 607 288 455 c 2
 288 245 l 2
EndSplineSet
Layer: 2
SplineSet
14 1294 m 4
 14 1342 44 1340 222 1414 c 4
 234 1419 245 1422 256 1422 c 4
 284 1422 306 1402 306 1346 c 4
 306 1259 289 998 279 730 c 5
 295 745 372 861 550 861 c 4
 745 861 942 728 942 450 c 4
 942 225 798 -16 498 -16 c 4
 388 -16 300 0 241 0 c 4
 198 0 189 -36 162 -36 c 4
 143 -36 127 -18 127 -2 c 4
 127 19 142 498 142 969 c 4
 142 1050 141 1130 140 1208 c 5
 103 1248 14 1242 14 1294 c 4
486 63 m 4
 704 63 799 213 799 372 c 4
 799 551 679 741 481 741 c 4
 299 741 283 601 283 455 c 6
 283 363 l 6
 283 152 284 63 486 63 c 4
EndSplineSet
EndChar

StartChar: c
Encoding: 99 99 2
Width: 835
VWidth: 1013
Flags: HW
HStem: -20 131<337.389 629.672> 758 113<284.732 531.398>
VStem: 40 149<281.732 613.955>
LayerCount: 3
Fore
SplineSet
40 404 m 0
 40 681 249 871 459 871 c 0
 618 871 747 797 747 720 c 0
 747 674 706 636 665 636 c 0
 592 636 539 758 390 758 c 0
 300 758 189 690 189 466 c 0
 189 319 278 111 487 111 c 0
 632.15234375 111 698.036132812 173.580078125 737 208.356445312 c 0
 755.74609375 225.086914062 770.333007812 231.4140625 781.106445312 231.4140625 c 0
 797.434570312 231.4140625 805 216.877929688 805 202 c 0
 805 119 632 -20 435 -20 c 0
 217 -20 40 152 40 404 c 0
EndSplineSet
Layer: 2
SplineSet
805 202 m 4
 805 119 632 -20 435 -20 c 4
 217 -20 40 152 40 404 c 4
 40 681 249 871 459 871 c 4
 618 871 747 797 747 720 c 4
 747 674 706 636 665 636 c 4
 592 636 539 758 390 758 c 4
 300 758 189 690 189 466 c 4
 189 319 278 111 487 111 c 4
 632.15234375 111 698.036132812 173.580078125 737 208.356445312 c 4
 755.74609375 225.086914062 770.333007812 231.4140625 781.106445312 231.4140625 c 4
 797.434570312 231.4140625 805 216.877929688 805 202 c 4
EndSplineSet
EndChar

StartChar: d
Encoding: 100 100 3
Width: 988
VWidth: 1010
Flags: HW
HStem: -28 21G<716.5 727> -10 122<355.852 621.343> 782 71<325.7 646.437> 1385 20G<816 846>
VStem: 40 148<285.649 625.828> 703 138<160.299 702.27> 708 152<822.882 1220.03>
LayerCount: 3
Fore
SplineSet
40 412 m 0
 40 642 173 853 481 853 c 0
 617 853 708 814 708 814 c 1
 704 1202 l 2
 704 1228 555 1218 555 1270 c 0
 555 1299 611 1316 711 1356 c 0
 776 1382 801 1405 831 1405 c 0
 861 1405 869 1381 869 1346 c 0
 869 1312 861 1241 860 1203 c 0x7a
 855 948 841 653 841 223 c 0x7c
 841 168 842 159 865 159 c 2
 915 159 l 2
 932 159 958 159 958 132 c 0
 958 89 860 78 757 -7 c 0
 741 -21 732 -28 722 -28 c 0xbc
 711 -28 701 -22 701 1 c 2
 701 124 l 1
 674 99 646 -10 456 -10 c 0
 260 -10 40 130 40 412 c 0
188 466 m 0
 188 234 360 112 518 112 c 0x7c
 672 112 702 174 703 339 c 2
 705 676 l 2
 705 744 587 782 472 782 c 0
 276 782 188 647 188 466 c 0
EndSplineSet
EndChar

StartChar: e
Encoding: 101 101 4
Width: 842
VWidth: 1000
Flags: HW
HStem: -27 122<324.632 623.762> 771 106<259.731 495.49>
VStem: 40 141<340.173 634.041> 590 201<600.647 688.995>
LayerCount: 3
Fore
SplineSet
40 417 m 0
 40 709 235 877 424 877 c 0
 622 877 791 693 791 624 c 0
 791 593 696 566 678 560 c 2
 186 386 l 1
 188 362 223 95 482 95 c 0
 665 95 732 221 777 221 c 0
 793 221 802 207 802 189 c 0
 802 124 627 -27 451 -27 c 0
 256 -27 40 81 40 417 c 0
181 497 m 0
 181 477 182 464 182 464 c 1
 541 599 l 2
 568 609 590 615 590 632 c 0
 590 658 478 771 363 771 c 0
 217 771 181 614 181 497 c 0
EndSplineSet
EndChar

StartChar: f
Encoding: 102 102 5
Width: 611
VWidth: 870
Flags: HW
HStem: -6 93<37.3562 175.856 339.182 481.575> 731 104<33.6387 183 334 569.737> 1321 117<461.037 682.5>
VStem: 183 151<91.5166 731 835 1105.14>
LayerCount: 3
Fore
SplineSet
33 778 m 0
 33 815 47 835 66 835 c 2
 186 835 l 1
 186 1287 457 1438 637 1438 c 0
 728 1438 799 1394 799 1344 c 0
 799 1307 764 1248 706 1248 c 0
 630 1248 591 1321 524 1321 c 0
 497 1321 469 1316 449 1298 c 0
 369 1227 328 1071 328 894 c 2
 328 835 l 1
 551 835 l 2
 564 835 571 828 571 797 c 0
 571 758 561 731 538 731 c 2
 334 731 l 1
 334 200 l 2
 334 101 352 92 385 91 c 0
 416 90 482 96 482 46 c 0
 482 7 452 -5 410 -5 c 0
 399 -5 294 0 255 0 c 0
 225 0 98 -6 88 -6 c 0
 60 -6 37 12 37 36 c 0
 37 77 68 87 101 87 c 2
 141 87 l 2
 174 87 175 102 176 136 c 0
 180 323 183 140 183 731 c 1
 52 732 l 2
 39 732 33 741 33 778 c 0
EndSplineSet
Layer: 2
SplineSet
141 95 m 2
 174 95 176 107 176 141 c 2
 176 198 l 2
 176 252 178 198 178 739 c 1
 50 740 l 2
 37 740 26 746 26 783 c 0
 26 820 47 854 66 854 c 2
 183 854 l 1
 183 889 l 2
 183 1263 426 1468 620 1468 c 0
 761 1468 799 1403 799 1369 c 0
 799 1332 771 1267 713 1267 c 0
 637 1267 595 1336 528 1336 c 0
 378 1336 328 1126 328 902 c 2
 328 854 l 1
 551 854 l 2
 564 854 571 833 571 802 c 0
 571 763 546 739 523 739 c 2
 334 739 l 1
 334 561 334 383 334 205 c 0
 334 106 351 98 392 98 c 0
 408 98 423 99 434 99 c 0
 483 99 484 58 484 46 c 0
 484 7 452 -5 410 -5 c 0
 399 -5 294 0 255 0 c 0
 225 0 94 -6 84 -6 c 0
 56 -6 35 12 35 36 c 0
 35 77 60 95 93 95 c 2
 141 95 l 2
EndSplineSet
EndChar

StartChar: g
Encoding: 103 103 6
Width: 901
VWidth: 874
Flags: HMW
HStem: -495 83<284.364 678.899> 221 89<295.623 515.958> 797 74<281.117 489.623>
VStem: 47 112<-320.291 -130.455> 58 148<407.142 705.647> 66 112<67.405 186.02> 576 156<397.079 712.262> 746 116<-357.285 -161.012>
LayerCount: 3
Fore
SplineSet
47 -247 m 0
 47 -107 198 -60 198 -60 c 1
 198 -60 66 -5 66 85 c 0
 66 185 209 273 209 273 c 1
 209 273 58 360 58 548 c 0
 58 685 166 871 389 871 c 0
 550 871 559 816 642 816 c 0
 723 816 707 909 770 909 c 0
 812 909 841 865 841 828 c 0
 841 751 784 731 750 731 c 0
 721 731 671 742 668 743 c 1
 668 743 732 678 732 566 c 0
 732 366 562 221 403 221 c 0
 337 221 300 237 274 237 c 0
 255 237 178 170 178 127 c 0
 178 68 273 29 422 29 c 0
 497 29 548 34 592 34 c 0
 729 34 862 -40 862 -214 c 0
 862 -324 802 -495 460 -495 c 0
 98 -495 47 -339 47 -247 c 0
159 -228 m 0
 159 -351 339 -412 498 -412 c 0
 746 -412 746 -286 746 -248 c 0
 746 -88 504 -130 320 -98 c 0
 277 -91 234 -76 234 -76 c 1
 234 -76 159 -103 159 -228 c 0
206 598 m 0
 206 346 355 310 418 310 c 0
 481 310 576 362 576 520 c 0
 576 664 521 797 386 797 c 0
 278 797 206 713 206 598 c 0
EndSplineSet
EndChar

StartChar: h
Encoding: 104 104 7
Width: 1088
VWidth: 994
Flags: W
HStem: -2 81<34.2771 186.213 350.568 503.847 604.325 760.125 920.945 1058.39> 738 118<429.972 661.596> 1399 20G<291 327.5>
VStem: 199 145<84.3171 675.909 703 1185.4> 771 143<82.2504 616.527>
LayerCount: 3
Fore
SplineSet
34 32 m 0
 34 75 58 79 89 79 c 0
 195 79 199 82 199 295 c 0
 199 684 204 342 204 1079 c 0
 204 1129 203 1174 203 1211 c 0
 203 1231.20107047 81.6137420034 1228.35663859 63 1260 c 0
 58 1268 56 1279 56 1287 c 0
 56 1331 89 1336 193 1382 c 0
 232 1399 275 1419 307 1419 c 0
 348 1419 354 1394 354 1372 c 0
 354 1337 353 1262 335 703 c 1
 379 765 421 856 600 856 c 0
 674 856 857 818 902 560 c 0
 912 500 911 355 914 271 c 0
 919 89 906 82 1003 78 c 0
 1043 76 1059 61 1059 30 c 0
 1059 -13 1035 -14 1015 -14 c 0
 1004 -14 917 2 820 2 c 0
 732 2 675 -6 655 -6 c 0
 628 -6 604 2 604 33 c 0
 604 81 654 74 714 80 c 0
 761 84 771 99 771 310 c 0
 771 574 729 652 642 708 c 0
 609 730 572 738 536 738 c 0
 348 738 344 600 344 417 c 2
 344 359 l 2
 344 278 345 235 345 195 c 0
 345 100 347 82 411 77 c 0
 451 74 504 76 504 35 c 0
 504 -8 483 -9 463 -9 c 0
 425 -9 363 6 266 6 c 0
 163 6 87 -2 70 -2 c 0
 56 -2 34 -1 34 32 c 0
EndSplineSet
EndChar

StartChar: i
Encoding: 105 105 8
Width: 526
VWidth: 857
Flags: HW
HStem: -9 75<31.1951 179.925 336.474 484.714> 829 20G<308 326.5> 1111 170<259.998 406.567>
VStem: 188 144<70.2113 656.248> 250 171<1129.42 1270.18>
LayerCount: 3
Fore
SplineSet
31 24 m 0
 31 66 61 66 95 66 c 0
 173 66 183 82 188 158 c 0
 193 241 197 397 197 427 c 0
 197 477 193 586 191 619 c 0
 188 671 44 656 44 707 c 0
 44 729 61 739 96 754 c 0
 319 847 298 849 318 849 c 0
 335 849 342 838 342 822 c 0
 342 770 333 728 333 307 c 0
 333 244 332 198 332 165 c 0
 332 58 348 75 438 63 c 0
 460 60 485 59 485 23 c 0
 485 8 465 -9 423 -9 c 0
 418 -9 362 0 251 0 c 0
 160 0 100 -9 66 -9 c 0
 40 -9 31 3 31 24 c 0
250 1207 m 0
 250 1250 285 1292 337 1292 c 0
 388 1292 422 1250 422 1207 c 0
 422 1133 363 1115 336 1115 c 0
 324 1115 250 1120 250 1207 c 0
EndSplineSet
EndChar

StartChar: j
Encoding: 106 106 9
Width: 627
VWidth: 865
Flags: HW
HStem: -424 148<67.8517 238.288> 865 20G<414.5 434.5> 1106 178<339.908 494.916>
VStem: 302 150<-180.947 830> 329 180<1120 1272.38>
LayerCount: 3
Fore
SplineSet
14 -349 m 0
 14 -293 88 -248 109 -248 c 0
 155 -248 173 -276 215 -276 c 0
 277 -276 300 -179 300 -21 c 0
 300 87 302 174 302 685 c 0
 302 705 166 711 166 741 c 0
 166 782 196 778 296 823 c 0
 358 851 403 885 426 885 c 0
 443 885 452 865 452 830 c 0xf0
 452 333.513671875 445 149.166992188 445 -74 c 0
 445 -118 406 -198 368 -241 c 0
 222 -405 206 -424 121 -424 c 0
 62 -424 14 -386 14 -349 c 0
329 1194 m 0xe8
 329 1254 374 1284 420 1284 c 0
 464 1284 509 1259 509 1199 c 0
 509 1145 464 1106 420 1106 c 0
 360 1106 329 1148 329 1194 c 0xe8
EndSplineSet
EndChar

StartChar: k
Encoding: 107 107 10
Width: 938
VWidth: 870
Flags: HMW
HStem: 0 78<51 147 305 442 774 886> 747 80<669 841> 1389 17G<255 279>
VStem: 152 137<79 329 432 1268>
LayerCount: 3
Fore
SplineSet
49 1312 m 0
 49 1333 83 1344 94 1347 c 2
 94 1347 243 1406 267 1406 c 0
 290 1406 295 1384 295 1364 c 2
 288 432 l 1
 432 583 545 683 545 722 c 0
 545 775 455 754 455 799 c 0
 455 807 459 827 509 827 c 0
 523 827 549 823 643 823 c 0
 731 823 774 827 790 827 c 0
 820 827 842 824 842 797 c 0
 842 758 808 766 735 747 c 0
 686 734 603 653 539 587 c 2
 447 492 l 1
 644 243 l 1
 788 64 816 76 851 67 c 0
 866 64 886 53 886 31 c 0
 886 16 870 -4 828 -4 c 0
 797 -4 751 0 673 0 c 0
 659 0 560 -4 531 -4 c 0
 505 -4 478 7 478 28 c 0
 478 89 573 47 573 102 c 0
 573 155 394 366 364 405 c 1
 290 329 l 1
 294 82 280 78 396 68 c 0
 418 66 442 53 442 31 c 0
 442 16 427 -4 385 -4 c 0
 322 -4 287 0 229 0 c 0
 195 0 140 -4 103 -4 c 0
 77 -4 50 7 50 28 c 0
 50 64 78 63 95 67 c 0
 152 82 152 93 152 177 c 2
 157 1216 l 2
 157 1265 49 1281 49 1312 c 0
EndSplineSet
EndChar

StartChar: l
Encoding: 108 108 11
Width: 503
VWidth: 870
Flags: HW
HStem: -9 78<39.1801 173.211 337.527 476.989> 1391 20G<278.5 315.5>
VStem: 177 153<78.7666 652.738>
LayerCount: 3
Fore
SplineSet
38 18 m 0
 38 76 105 67 141 76 c 0
 167 82 177 93 177 156 c 2
 184 1181 l 1
 70 1209 55 1206 55 1243 c 0
 55 1291 85 1296 170 1348 c 0
 227 1382 254 1411 303 1411 c 0
 328 1411 350 1398 350 1367 c 0
 350 1230 330 1367 330 192 c 0
 330 70 342 86 428 69 c 0
 462 62 477 50 477 31 c 0
 477 16 476 -9 434 -9 c 0
 388 -9 312 0 270 0 c 0
 202 0 119 -14 90 -14 c 0
 64 -14 38 -3 38 18 c 0
EndSplineSet
EndChar

StartChar: m
Encoding: 109 109 12
Width: 1436
VWidth: 870
Flags: HW
HStem: 2 77<69.4767 182.621 329.626 470.974 514.362 658.011 817.047 966.678 1023.96 1156.19 1316.54 1436.45> 750 112<413.661 607.012 877.203 1080.7> 861 20G<290.5 310.5>
VStem: 185 142<80.0975 688.656> 669 143<83.9813 682.422> 1163 149<86.6203 653.206>
LayerCount: 3
Fore
SplineSet
69 34 m 0
 69 70 96 76 113 77 c 0
 183 81 184 81 185 177 c 2
 188 634 l 2
 188 672 174 674 142 688 c 2
 94 709 l 2
 78 716 71 726 71 738 c 0
 71 781 116 786 185 824 c 0
 233 850 280 881 301 881 c 0xbc
 320 881 327 864 327 854 c 2
 327 727 l 1
 342 741 414 862 540 862 c 0
 716 862 785 720 785 720 c 1
 785 720 864 858 1003 858 c 0
 1301 858 1313 574 1313 370 c 0
 1313 326 1312 274 1312 220 c 0
 1312 81 1317 87 1373 80 c 0
 1408 76 1437 71 1437 33 c 0
 1437 18 1422 -2 1380 -2 c 0
 1317 -2 1287 2 1224 2 c 0
 1189 2 1096 -2 1070 -2 c 0
 1044 -2 1023 9 1023 30 c 0
 1023 94 1108 66 1135 86 c 0
 1153 99 1163 127 1163 160 c 2
 1163 411 l 2
 1163 448 1162 479 1160 506 c 0
 1146 701 1047 746 971 746 c 0
 856 746 815 665 811 663 c 1
 811 663 812 631 812 614 c 2
 812 163 l 2
 812 86 830 82 932 73 c 0
 966 70 967 47 967 32 c 0
 967 19 966 -2 918 -2 c 0
 906 -2 783 6 740 6 c 0
 724 6 578 -2 546 -2 c 0
 524 -2 514 13 514 34 c 0
 514 74 543 74 570 75 c 2
 601 76 l 2
 667 78 669 76 669 456 c 0
 669 617 650 750 476 750 c 0xdc
 392 750 327 678 327 574 c 2
 327 159 l 2
 327 84 342 82 384 79 c 0
 436 75 471 76 471 41 c 0
 471 18 461 2 419 2 c 0
 363 2 327 6 263 6 c 0
 234 6 164 2 121 2 c 0
 95 2 69 13 69 34 c 0
EndSplineSet
EndChar

StartChar: n
Encoding: 110 110 13
Width: 1068
VWidth: 870
Flags: HW
HStem: 0 80<50.9088 190.629 341.961 484.805 613.215 763.797 911.081 1049.98> 760 123<471.166 695.013>
VStem: 197 142<81.349 683.877> 769 146<80.0998 683.446>
LayerCount: 3
Fore
SplineSet
50 30 m 0
 50 70 85 75 138 80 c 0
 205 86 195 71 197 444 c 0
 197 500 195 588 195 668 c 0
 195 682 176 688 153 693 c 2
 130 698 l 2
 80 708 66 715 66 738 c 0
 66 755 66 761 97 780 c 2
 288 893 l 2
 303 902 318 913 329 913 c 0
 339 913 346 904 346 874 c 2
 344 747 l 1
 389 780 492 883 623 883 c 0
 745 883 850 805 889 702 c 0
 910 648 915 583 915 511 c 2
 915 463 l 2
 915 388 909 281 909 178 c 0
 909 94 911 80 964 80 c 2
 998 80 l 2
 1024 80 1050 75 1050 39 c 0
 1050 24 1044 -8 1000 -8 c 0
 987 -8 890 0 832 0 c 0
 816 0 704 -4 672 -4 c 0
 638 -4 612 7 612 28 c 0
 612 82 659 76 724 80 c 0
 755 82 766 92 766 162 c 0
 766 180 769 162 769 539 c 0
 769 699 662 760 560 760 c 0
 444 760 345 684 344 585 c 0
 343 445 339 165 339 153 c 0
 339 60 380 86 451 73 c 0
 478 68 485 52 485 36 c 0
 485 16 471 -4 435 -4 c 0
 379 -4 310 0 259 0 c 0
 220 0 113 -8 97 -8 c 0
 55 -8 50 19 50 30 c 0
EndSplineSet
EndChar

StartChar: o
Encoding: 111 111 14
Width: 953
VWidth: -7
Flags: HW
HStem: -21 82<331.922 614.123> 773 88<309.4 598.342>
VStem: 33 163<221.987 616.531> 746 154<224.176 611.598>
LayerCount: 3
Fore
SplineSet
33 423 m 0
 33 653 208 861 466 861 c 0
 686 861 900 717 900 431 c 0
 900 113 652 -21 460 -21 c 0
 196 -21 33 183 33 423 c 0
196 423 m 0
 196 240 281 61 459 61 c 0
 683 61 746 231 746 415 c 0
 746 644 612 773 458 773 c 0
 272 773 196 642 196 423 c 0
EndSplineSet
EndChar

StartChar: p
Encoding: 112 112 15
Width: 972
VWidth: 870
Flags: HW
HStem: -459 79<8.59409 144.799 294.035 475.896> 0 71<307.354 645.388> 721 131<409.91 635.141> 854 20G<262 271.5>
VStem: 146 144<-374.467 16 100.612 660.476> 785 137<227.833 564.477>
LayerCount: 3
Fore
SplineSet
8 -427 m 0
 8 -384 54 -384 112 -380 c 0
 146 -377 146 -365 146 -278 c 2
 146 -262 l 2
 146 -141 156 613 156 632 c 0
 156 650 155 672 146 674 c 0
 50 691 23 684 23 718 c 0
 23 744 38 745 208 843 c 0
 234 858 257 874 267 874 c 0
 276 874 299 870 299 818 c 0
 299 814 294 726 292 680 c 1
 292 680 385 852 542 852 c 0
 792 852 922 628 922 456 c 0
 922 91 677 0 490 0 c 0
 400 0 287 16 287 16 c 1
 290 -310 l 2
 291 -393 341 -372 434 -380 c 0
 471 -383 476 -396 476 -416 c 0
 476 -432 472 -456 426 -456 c 0
 414 -456 317 -452 228 -452 c 0
 182 -452 123 -459 62 -459 c 0
 31 -459 8 -458 8 -427 c 0
290 149 m 2
 290 130 290 113 310 100 c 0
 327 89 399 71 480 71 c 0
 724 71 785 237 785 377 c 0
 785 619 616 721 496 721 c 0
 430 721 291 705 291 520 c 2
 290 149 l 2
EndSplineSet
EndChar

StartChar: q
Encoding: 113 113 16
Width: 1031
VWidth: 870
Flags: HW
HStem: -449 81<559.703 701.762 853.995 998.538> -24 113<358.856 634.56> 760 76<326.461 684.338> 834 20G<842.5 864.5>
VStem: 77 114<259.625 607.367> 717 143<-363.676 104 122.121 728.945>
LayerCount: 3
Fore
SplineSet
77 391 m 0
 77 645 221 838 524 838 c 0xec
 602 838 700 821 754 821 c 0
 800 821 832 854 853 854 c 0xdc
 876 854 878 821 878 785 c 0
 878 740 861 641 860 552 c 2
 853 -291 l 2
 853 -365 854 -365 960 -366 c 0
 981 -366 999 -374 999 -398 c 0
 999 -439 983 -450 960 -450 c 0
 925 -450 796 -438 756 -438 c 0
 634 -438 613 -449 591 -449 c 0
 571 -449 557 -442 557 -420 c 0
 557 -383 618 -377 660 -368 c 0
 689 -361 709 -342 709 -268 c 0
 709 -131 718 104 718 104 c 1
 708 96 650 -24 470 -24 c 0
 246 -24 77 136 77 391 c 0
193 458 m 0
 193 234.775 328.2 93 531 93 c 0
 705 93 717 170 717 244 c 2
 717 286 l 2
 717 331 718 294 718 662 c 0
 718 719 661 760 491 760 c 0xec
 277 760 193 624 193 458 c 0
EndSplineSet
EndChar

StartChar: r
Encoding: 114 114 17
Width: 749
VWidth: 996
Flags: HW
HStem: -13 89<35.4199 172.61 339.28 524.167> 710 162<478.335 672.864>
VStem: 179 153<80.5214 655.42>
LayerCount: 3
Fore
SplineSet
35 39 m 0
 35 66 72 69 90 71 c 0
 152 76 178 81 179 175 c 2
 184 667 l 2
 184 679 60 682 60 713 c 2
 60 725 l 2
 60 746 60 762 91 777 c 2
 233 843 l 2
 278 864 292 875 310 875 c 0
 328 875 335 865 335 810 c 2
 335 701 l 1
 335 701 458 872 627 872 c 0
 665 872 723 857 723 776 c 0
 723 724 679 680 636 680 c 0
 583 680 567 710 514 710 c 0
 379.579790916 710 332 609.087009877 332 552 c 2
 332 200 l 2
 332 90 350 84 397 76 c 0
 452 66 525 78 525 24 c 0
 525 4 515 -13 475 -13 c 0
 432 -13 316 5 234 5 c 0
 172 5 102 -6 87 -6 c 0
 58 -6 35 0 35 39 c 0
EndSplineSet
Layer: 2
SplineSet
514 718 m 4
 410 718 340 631 340 582 c 4
 338 301 337 266 337 231 c 4
 337 91 338 89 473 83 c 4
 516 81 539 61 539 29 c 4
 539 14 533 -14 481 -14 c 4
 477 -14 314 4 250 4 c 4
 188 4 111 0 96 0 c 4
 67 0 35 0 35 39 c 4
 35 72 72 78 90 80 c 4
 152 85 176 90 177 184 c 6
 184 665 l 6
 184 689 46 696 46 734 c 4
 46 759 56 773 91 790 c 6
 233 856 l 6
 278 877 292 888 310 888 c 4
 328 888 335 878 335 823 c 6
 335 714 l 5
 335 714 458 885 627 885 c 4
 665 885 723 870 723 789 c 4
 723 737 679 693 636 693 c 4
 583 693 567 718 514 718 c 4
EndSplineSet
EndChar

StartChar: s
Encoding: 115 115 18
Width: 718
VWidth: 1008
Flags: HW
HStem: -29 98<248.331 527.696> 751 92<233.868 470.447>
VStem: 62 85<160.471 349.412> 107 110<576.088 735.373> 541 72<570.201 674.595 788 846.99> 569 109<111.001 282.952>
LayerCount: 3
Fore
SplineSet
62 97 m 0
 62 114 72 177 72 207 c 0
 72 221 73 258 73 287 c 0
 73 335 90 351 117 351 c 0
 147 351 146 316 147 273 c 0xe4
 148 228 148 173 255 108 c 0
 308 76 368 69 416 69 c 0
 508 69 569 141 569 200 c 0
 569 293 477 313 417 333 c 0
 196 408 107 405 107 596 c 0xd4
 107 714 184 843 360 843 c 0
 458 843 513 804 530 788 c 1
 532 819 l 2
 532 833 535 847 566 847 c 2
 576 847 l 2
 592 847 596 844 600 793 c 2
 611 662 l 2
 612 655 613 642 613 628 c 0
 613 601 608 570 581 570 c 0
 559 570 547 585 541 608 c 0
 516 705 408 751 341 751 c 0
 296 751 217 749 217 639 c 0xd8
 217 482 678 584 678 265 c 0
 678 44 474 -29 382 -29 c 0
 324 -29 270 -25 154 23 c 0
 81 53 62 57 62 97 c 0
EndSplineSet
EndChar

StartChar: t
Encoding: 116 116 19
Width: 747
VWidth: 1013
Flags: HW
HStem: -23 136<392.191 573.853> 709 125<382 677.643>
VStem: 200 155<146.22 709.155> 216 148<369.862 713>
LayerCount: 3
Fore
SplineSet
64 743 m 0
 64 770 100 781 151 825 c 0
 334 981 303 1068 364 1068 c 0xd0
 389 1068 400 1045 400 1017 c 0
 400 987 382 878 382 844 c 2
 382 821 l 1
 468 825 642 834 651 834 c 0
 677 834 685 812 685 792 c 0
 685 779 677 709 628 709 c 0
 602 709 575 710 364 713 c 1xd0
 361 555 355 385 355 369 c 0
 355 170 394 113 472 113 c 0
 602 113 641 232 683 232 c 0
 693 232 715 225 715 196 c 0
 715 125 581 -23 426 -23 c 0
 287 -23 200 46 200 314 c 0xe0
 200 332 216 713 216 713 c 1
 112 713 l 2
 74 713 64 721 64 743 c 0
EndSplineSet
EndChar

StartChar: u
Encoding: 117 117 20
Width: 1016
VWidth: 870
Flags: HMW
HStem: -27 103<385.952 629.32> 750 93<16 130.049 530.701 711.47>
VStem: 132 149<197.253 720.345> 700 144<138.849 651.088>
LayerCount: 3
Fore
SplineSet
16 780 m 2
 16 811 l 2
 16 829 30 846 49 846 c 0
 118 846 258 854 264 854 c 0
 280 854 298 842 298 814 c 0
 298 772 281 476 281 392 c 0
 281 227 350 76 521 76 c 0
 658 76 697 194 700 285 c 0
 701 326 712 656 712 697 c 0
 712 740 683 750 628 750 c 2
 574 750 l 2
 545 750 530 756 530 812 c 0
 530 837 564 843 582 843 c 2
 833 846 l 2
 863 846 863 835 863 821 c 0
 846 307 844 307 844 178 c 0
 844 145 845 130 896 130 c 2
 932 130 l 2
 977 130 982 126 982 114 c 2
 982 67 l 2
 982 54 977 55 840 11 c 0
 821 5 760 -20 734 -20 c 0
 720 -20 710 -17 710 -1 c 0
 710 69 712 76 712 84 c 2
 712 108 l 1
 695 99 656 -27 472 -27 c 0
 365 -27 132 24 132 318 c 0
 132 381 130 691 130 722 c 0
 130 745 120 748 105 748 c 2
 56 748 l 2
 38 748 16 762 16 780 c 2
EndSplineSet
EndChar

StartChar: v
Encoding: 118 118 21
Width: 1052
VWidth: 876
Flags: HW
HStem: -20 21G<552 593> 757 91<31.7381 150.874 908.412 1020.44>
VStem: 30 290<689.5 833> 779 242<637.5 816>
LayerCount: 3
Fore
SplineSet
30 819 m 0
 30 847 68 848 92 848 c 0
 117 848 131 845 244 845 c 0
 332 845 406 849 422 849 c 0
 452 849 482 840 482 804 c 0
 482 774 468 763 423 763 c 0
 366 763 320 751 320 708 c 0
 320 671 564 194 592 194 c 0
 609 194 779 562 779 713 c 0
 779 797 647 719 647 812 c 0
 647 839 684 849 714 849 c 0
 769 849 810 843 887 843 c 0
 917 843 959 848 982 848 c 0
 1011 848 1021 822 1021 810 c 0
 1021 756 972 760 936 747 c 0
 890 730 915 649 693 166 c 0
 665 107 616 -20 570 -20 c 0
 534 -20 500 35 451 117 c 0
 176.381841445 569.748855997 190.500614164 720.356879644 105 757 c 0
 60 776 30 768 30 819 c 0
EndSplineSet
EndChar

StartChar: w
Encoding: 119 119 22
Width: 1606
VWidth: 876
Flags: HW
HStem: -20 21G<558 608.5 1108 1147.5> 747 97<1455.17 1568.27> 763 86<34.5498 171.944 345.012 481.913 889.262 1076.58 1207.32 1346.54>
VStem: 34 311<711 831> 542 344<694 814.5> 1347 224<646.5 816>
LayerCount: 3
Fore
SplineSet
34 817 m 0
 34 845 57 851 81 851 c 0
 106 851 151 845 264 845 c 0
 352 845 406 849 422 849 c 0
 452 849 482 840 482 804 c 0
 482 774 468 763 423 763 c 0xbc
 406 763 395 764 388 764 c 0
 362 764 345 750 345 730 c 0
 345 692 561 185 590 185 c 0
 607 185 724 391 777 572 c 1
 756 619 712 706 699 729 c 0
 658 802 542 731 542 806 c 0
 542 823 551 845 590 845 c 0
 605 845 776 836 834 836 c 0
 891 836 932 842 1010 842 c 0
 1040 842 1077 829 1077 802 c 0
 1077 767 1049 754 1014 754 c 2
 954 754 l 2
 917 754 886 740 886 710 c 0
 886 678 926 604 959 542 c 0
 1133 207 1127 206 1142 206 c 0
 1176 206 1347 580 1347 713 c 0
 1347 745 1321 752 1298 756 c 0
 1257 763 1207 753 1207 812 c 0
 1207 839 1244 845 1274 845 c 0
 1329 845 1360 839 1437 839 c 0
 1467 839 1509 844 1532 844 c 0
 1561 844 1571 822 1571 810 c 0
 1571 756 1522 760 1486 747 c 0
 1442 731 1492 721 1238 166 c 0
 1210 107 1169 -18 1126 -18 c 0
 1090 -18 1036 62 946 243 c 2
 834 470 l 1xdc
 732 245 647 -20 570 -20 c 0
 546 -20 500 35 451 117 c 0
 398 205 377 247 224 607 c 0
 175 723 160 755 125 757 c 0
 64 760 34 757 34 817 c 0
EndSplineSet
Layer: 2
SplineSet
1346 713 m 4
 1346 802 1206 720 1206 812 c 4
 1206 839 1243 847 1273 847 c 4
 1328 847 1359 839 1436 839 c 4
 1466 839 1514 842 1537 842 c 4
 1568 842 1570 819 1570 807 c 4
 1570 771 1522 762 1485 744 c 4
 1441 722 1469 676 1238 171 c 4
 1217 126 1169 -13 1127 -13 c 4
 1081 -13 1010 119 946 248 c 6
 834 475 l 5
 834 475 676 93 632 31 c 4
 612 2 604 -15 570 -15 c 4
 510 -15 447 106 377 260 c 4
 188 673 181 761 123 764 c 4
 62 767 36 764 36 824 c 4
 36 852 57 858 81 858 c 4
 106 858 151 850 264 850 c 4
 352 850 406 854 422 854 c 4
 452 854 482 845 482 809 c 4
 482 779 468 768 423 768 c 4
 406 768 395 769 388 769 c 4
 362 769 345 755 345 735 c 4
 345 697 561 190 590 190 c 4
 607 190 724 396 777 577 c 5
 756 624 712 711 699 734 c 4
 658 807 542 736 542 811 c 4
 542 828 551 850 590 850 c 4
 605 850 776 839 834 839 c 4
 891 839 932 847 1010 847 c 4
 1040 847 1077 834 1077 807 c 4
 1077 772 1049 759 1014 759 c 6
 954 759 l 6
 917 759 886 745 886 715 c 4
 886 683 926 609 959 547 c 4
 1133 212 1127 211 1142 211 c 4
 1176 211 1346 580 1346 713 c 4
EndSplineSet
EndChar

StartChar: x
Encoding: 120 120 23
Width: 980
VWidth: 870
Flags: HW
HStem: -4 98<787.175 941.093> -4 83<22.0204 177.913> 739 85<29.7034 192.782 726.62 915.12>
LayerCount: 3
Fore
SplineSet
22 37 m 0
 22 70 50 79 71 79 c 2
 107 79 l 2x60
 143 79 147 81 169 107 c 0
 207 150 405 426 405 426 c 1
 195 707 184 723 126 739 c 0
 67 755 29 738 29 792 c 0
 29 808 49 824 78 824 c 0
 92 824 170 821 264 821 c 0
 352 821 373 825 389 825 c 0
 419 825 450 815 450 788 c 0
 450 736 371 774 371 718 c 0
 371 696 494 537 494 537 c 1
 494 537 622 696 622 724 c 0
 622 765 546 741 546 788 c 0
 546 815 572 824 602 824 c 0
 615 824 668 822 715 822 c 0
 745 822 840 828 857 828 c 0
 909 828 916 802 916 790 c 0
 916 725 839 763 778 735 c 0
 752 723 724 698 698 663 c 2
 546 462 l 1
 791 130 809 108 827 94 c 0
 862 66 942 103 942 40 c 0
 942 3 920 -4 892 -4 c 0xa0
 857 -4 840 0 718 0 c 0
 683 0 568 -4 542 -4 c 0
 516 -4 492 11 492 32 c 0
 492 102 618 57 618 99 c 0
 618 133 456 348 456 348 c 1
 456 348 285 140 285 103 c 0x60
 285 50 376 94 376 38 c 0
 376 23 369 -4 327 -4 c 0
 276 -4 302 0 72 0 c 0
 46 0 22 9 22 37 c 0
EndSplineSet
EndChar

StartChar: y
Encoding: 121 121 24
Width: 1031
VWidth: 870
Flags: HW
HStem: 752 81<374 464.679 609.076 690 886.008 1003.22>
VStem: 46 294<694 803> 742 264<644 819.5>
LayerCount: 3
Fore
SplineSet
46 799 m 0
 46 807 51 835 101 835 c 0
 115 835 139 828 233 828 c 0
 321 828 390 838 423 838 c 0
 453 838 465 825 465 798 c 0
 465 766 438 761 410 755 c 2
 374 747 l 2
 355 743 340 736 340 717 c 0
 340 671 543 220 562 220 c 0
 576 220 742 596 742 692 c 0
 742 737 711 745 690 748 c 2
 665 752 l 2
 635 756 609 762 609 794 c 0
 609 821 625 833 655 833 c 0
 668 833 714 828 791 828 c 0
 821 828 948 836 971 836 c 0
 989 836 1006 829 1006 810 c 0
 1006 773 978 760 948 749 c 0
 888 726 895 749 804 549 c 1
 657 220 482 -169 357 -300 c 0
 314 -344 273 -367 232 -367 c 0
 176 -367 153 -341 153 -293 c 0
 153 -257 191 -232 237 -209 c 0
 291 -182 305 -188 365 -120 c 0
 418 -59 469 23 469 30 c 0
 469 34 320 416 152 721 c 0
 120 778 46 745 46 799 c 0
EndSplineSet
EndChar

StartChar: z
Encoding: 122 122 25
Width: 756
VWidth: 870
Flags: HW
HStem: 0 136<236.029 587.771> 685 139<214.914 477.987>
VStem: 125 91<824 917.186> 590 86<-172.949 -13.4303> 647 84<158.441 312.677>
LayerCount: 3
Fore
SplineSet
33 35 m 0
 33 57 46 81 48 84 c 2
 432 600 l 2
 463 642 478 661 478 672 c 0
 478 683 460 685 410 685 c 2
 273 685 l 2
 145 685 197.708183864 573.286693716 138.353091647 573.286693716 c 0xf0
 113.35464473 573.286693716 105 592 105 618 c 0
 105 660 125 731 125 800 c 2
 125 823 l 2
 125 846 129 918 178 918 c 0
 208 918 216 875 216 851 c 0
 216 836 220 824 255 824 c 2
 631 824 l 2
 679 824 681 823 681 795 c 2
 681 790 l 2
 681 755 586 675 498 545 c 0
 329 292 236 193 236 166 c 0
 236 142 275 136 534 136 c 0
 593 136 617 136 647 260 c 0
 654 291 670 314 700 314 c 0
 710 314 731 306 731 270 c 0xe8
 731 213 688 50 676 -64 c 0
 672 -103 677 -173 634 -173 c 0
 607 -173 590 -155 590 -131 c 2
 590 -57 l 2
 590 -28 582 0 458 0 c 2
 67 0 l 2
 33 0 33 16 33 35 c 0
EndSplineSet
EndChar

StartChar: B
Encoding: 66 66 27
Width: 1178
VWidth: 0
Flags: HW
HStem: -10 90<24.1673 214.438 427.196 799.878> 721 65<410.045 738.765> 1287 105<29.4375 228.612 410 725.371>
VStem: 238 172<103.791 720.995 786 1279.39> 860 198<916.742 1174.99> 960 176<235.161 555.859>
LayerCount: 3
Fore
SplineSet
24 42 m 0
 24 55 36 90 74 90 c 0
 94 90 125 92 145 92 c 0
 199 92 223 121 225 157 c 0
 237 427 238 618 238 833 c 0
 238 972 235 1007 235 1181 c 0
 235 1257 225 1287 135 1287 c 2
 92 1287 l 2
 60 1287 28 1300 28 1338 c 0
 28 1348 36 1392 88 1392 c 0
 220 1392 292 1389 390 1389 c 0
 463 1389 534 1392 624 1392 c 0
 958 1392 1058 1189 1058 1080 c 0
 1058 862 860 770 860 770 c 1xf8
 860 770 1136 698 1136 420 c 0xf4
 1136 -4 675 -10 642 -10 c 0
 576 -10 373 6 292 6 c 0
 224 6 140 -10 82 -10 c 0
 29 -10 24 12 24 42 c 0
403 277 m 0
 403 116 412 80 606 80 c 0
 889 80 960 283 960 399 c 0
 960 615 760 690 686 704 c 0
 635 714 561 721 454 721 c 0xf4
 405 721 404 715 404 653 c 0
 404 578 403 615 403 277 c 0
410 816 m 2
 410 795 430 786 451 786 c 2
 512 786 l 2
 674 786 860 793 860 1036 c 0xf8
 860 1244 672 1288 466 1288 c 0
 418 1288 410 1273 410 1243 c 2
 410 816 l 2
EndSplineSet
EndChar

StartChar: O
Encoding: 79 79 40
Width: 1543
VWidth: -23
Flags: HW
HStem: -32 93<596.699 1028.31> 1330 100<520.027 968.148>
VStem: 55 197<485.564 971.004> 1292 197<419.554 967.658>
LayerCount: 3
Fore
SplineSet
55 705 m 0
 55 1106 318 1430 750 1430 c 0
 1250 1430 1489 1114 1489 685 c 0
 1489 286 1245 -32 793 -32 c 0
 293 -32 55 300 55 705 c 0
252 793 m 0
 252 445 407 61 813 61 c 0
 1212 61 1292 375 1292 691 c 0
 1292 1081 1079 1330 744 1330 c 0
 460 1330 252 1177 252 793 c 0
EndSplineSet
EndChar

StartChar: ae
Encoding: 230 230 53
Width: 1325
VWidth: 0
Flags: HW
HStem: -26 120<772.617 1058.2> -21 75<266.304 452.671> 765 95<697.953 942.544> 791 76<259.582 447.498>
VStem: 71 155<85.4641 317.325> 503 124<465.678 694.834> 1014 218<589.062 698.742>
LayerCount: 3
Fore
SplineSet
62 702 m 0
 62 787 222 867 358 867 c 0x5e
 444 867 550 846 608 736 c 1
 684 837 793 860 871 860 c 0x2e
 1067 860 1232 690 1232 635 c 0
 1232 595 1153 572 974 509 c 2
 638 390 l 1
 638 390 660 94 922 94 c 0
 1107 94 1179 229 1218 229 c 0
 1237 229 1250 217 1250 200 c 0
 1250 146 1086 -26 881 -26 c 0xae
 639 -26 566 154 566 154 c 1
 566 154 534 -21 284 -21 c 0
 115 -21 71 82 71 181 c 0
 71 238 105 363 226 402 c 0
 486 486 503 454 503 509 c 2
 503 543 l 2
 503 688 475 791 342 791 c 0
 213 791 226 619 141 619 c 0
 123 619 62 629 62 702 c 0
226 221 m 0
 226 121 262 54 356 54 c 0x4e
 385 54 512 75 512 224 c 2
 512 420 l 1
 274 368 226 348 226 221 c 0
627 504 m 0
 627 479 630 460 630 460 c 1
 984 588 l 2
 1012 598 1014 613 1014 632 c 0
 1014 684 904 765 801 765 c 0
 711 765 627 703 627 504 c 0
EndSplineSet
EndChar

StartChar: oe
Encoding: 339 339 54
Width: 1616
VWidth: 0
Flags: HW
HStem: -26 124<1063.64 1354.65> -17 73<377.479 634.866> 768 99<990.048 1217.2> 791 68<371.859 607.615>
VStem: 70 158<230.749 622.048> 775 129<271.969 390 459 618.721> 1310 206<590.522 686.167>
LayerCount: 3
Fore
SplineSet
70 426 m 0
 70 638 212 859 498 859 c 0x5e
 776 859 844 667 844 667 c 1
 845 668 929 867 1163 867 c 0
 1360 867 1516 685 1516 630 c 0
 1516 606 1499 587 1459 574 c 2
 912 390 l 1
 912 336 975 98 1229 98 c 0xae
 1393 98 1453 235 1497 235 c 0
 1508 235 1527 230 1527 208 c 0
 1527 116.424804688 1358.41503906 -26 1181 -26 c 0xae
 894 -26 837 178 837 178 c 1
 837 178 752 -17 499 -17 c 0
 156 -17 70 282 70 426 c 0
228 427 m 0
 228 176 343 56 517 56 c 0
 652 56 775 169 775 414 c 0
 775 643 643 791 491 791 c 0x5e
 328 791 228 646 228 427 c 0
904 459 m 1
 1279 595 l 2
 1307 606 1310 611 1310 628 c 0
 1310 654 1205 768 1082 768 c 0x2e
 913 768 904 525 904 470 c 2
 904 459 l 1
EndSplineSet
EndChar

StartChar: f_f
Encoding: 65536 -1 55
Width: 1024
VWidth: 0
Flags: HW
HStem: 1 78<312.459 449.862 500.276 619.219 779.137 926.982> 739 91<18.032 179 315 631 773 985.695> 1298 93<441.912 685.183> 1335 100<891.667 1139>
VStem: 165 143<92.8123 739> 183 132<830 1091.16> 631 141<85.9824 739 830 1127.11>
LayerCount: 3
Fore
SplineSet
18 786 m 0
 18 823 29 830 42 830 c 2
 183 830 l 1
 183 1184 376 1391 630 1391 c 0xe6
 737 1391 808 1329 808 1329 c 1
 892 1406 974 1435 1096 1435 c 0
 1182 1435 1274 1416 1274 1344 c 0
 1274 1307 1231 1244 1173 1244 c 0
 1093 1244 1079 1335 981 1335 c 0
 822 1335 773 1066 773 894 c 2
 773 830 l 1
 968 830 l 2
 981 830 986 828 986 797 c 0
 986 759 980 739 958 739 c 2
 772 739 l 1
 770 200 l 2
 770 72 799 87 878 81 c 0
 903 79 927 70 927 41 c 0
 927 2 902 -6 860 -6 c 0
 849 -6 739 0 700 0 c 0
 622 0 581 -4 551 -4 c 0
 523 -4 500 2 500 35 c 0
 500 76 543 76 552 77 c 0
 610 87 619 76 625 169 c 0
 629 228 631 330 631 499 c 2
 631 739 l 1
 315 739 l 1xd6
 312 546 308 489 308 445 c 2
 308 272 l 2
 308 216 309 177 309 149 c 0
 309 82 336 86 404 79 c 0
 439 75 450 58 450 36 c 0
 450 21 429 1 387 1 c 0
 346 1 289 6 226 6 c 0
 187 6 137 -1 97 -1 c 0
 54 -1 22 7 22 40 c 0xda
 22 126 165 41 165 158 c 0xda
 165 461 179 415 179 739 c 1
 42 739 l 2
 29 739 18 752 18 786 c 0
315 830 m 1xe6
 639 830 l 1
 643 910 636 957 650 1036 c 0
 662 1107 705 1213 705 1213 c 1
 605 1268 566 1298 510 1298 c 0
 456 1298 315 1248 315 830 c 1xe6
EndSplineSet
Ligature2: "liga subtable" f f
LCarets2: 1 0 
EndChar

StartChar: f_i
Encoding: 65537 -1 56
Width: 959
VWidth: 870
Flags: HWO
HStem: 0 81<37.2014 173.94 334.794 466.748 506.081 642.519 833 919.916> 731 104<38.6387 183 330 640.783> 1321 102<481.489 702.5>
VStem: 176 153<86.7962 731> 191 139<835 1100.78> 651 140<82.9148 731>
LayerCount: 3
Fore
SplineSet
37 36 m 0
 37 77 68 84 101 85 c 0
 173 89 175 85 176 131 c 0xf4
 180 318 183 140 183 731 c 1
 57 732 l 2
 44 732 38 741 38 778 c 0
 38 815 52 835 71 835 c 2
 191 835 l 1
 191 1287 488 1423 657 1423 c 0
 748 1423 809 1384 809 1334 c 0
 809 1297 784 1248 726 1248 c 0
 650 1248 611 1321 544 1321 c 0
 373 1321 330 999 330 835 c 1
 551 835 l 2
 693 835 744 842 770 842 c 0
 787 842 797 829 797 809 c 0
 797 745 791 649 791 165 c 0
 791 96 802 83 833 81 c 2
 869 79 l 2
 891 78 920 80 920 44 c 0
 920 3 899 -7 862 -7 c 0
 824 -7 771 4 708 4 c 0
 617 4 592 0 558 0 c 0
 532 0 506 17 506 38 c 0
 506 80 534 82 568 82 c 0
 646 82 640 82 645 158 c 0
 650 241 651 397 651 427 c 0xec
 651 731 636 731 609 731 c 2
 329 731 l 1
 329 195 l 2
 329 83 343 93 401 81 c 0
 428 76 467 72 467 46 c 0
 467 6 449 0 412 0 c 0
 371 0 311 8 242 8 c 0
 197 8 141 -5 98 -5 c 0
 63 -5 37 4 37 36 c 0
EndSplineSet
Ligature2: "liga subtable" f i
LCarets2: 1 0 
EndChar

StartChar: f_l
Encoding: 65538 -1 57
Width: 971
VWidth: 870
Flags: HW
HStem: -5 84<35.0327 169.853 319.057 451.96 489.115 629.703 788.456 920.669> 736 99<28.252 178 310 535.584> 1321 95<414.586 617.5>
VStem: 178 131<80.6172 736 835 1147.22> 632 153<87.0938 805.899> 656 139<594.101 1258.83>
LayerCount: 3
Fore
SplineSet
28 778 m 0
 28 815 33 835 52 835 c 2
 178 835 l 1xf4
 178 1088 224 1260 402 1365 c 0
 466 1403 530 1416 592 1416 c 0
 643 1416 707 1386 707 1386 c 1
 707 1386 740 1418 755 1418 c 0
 780 1418 795 1397 795 1366 c 0xf4
 795 1229 785 1367 785 192 c 0
 785 70 793 97 879 79 c 0
 913 72 921 50 921 31 c 0
 921 16 909 -10 867 -10 c 0
 821 -10 767 0 725 0 c 0
 657 0 574 -6 545 -6 c 0
 519 -6 488 5 488 26 c 0
 488 80 551 74 596 82 c 0
 624 87 630 93 632 156 c 2xf8
 656 1244 l 1
 592 1254 540 1321 479 1321 c 0
 402 1321 340 1190 323 1072 c 0
 311 989 310 913 310 894 c 2
 310 835 l 1
 514 835 l 2
 527 835 536 828 536 797 c 0
 536 758 531 736 508 736 c 2
 309 736 l 1
 309 200 l 2
 309 101 332 83 365 78 c 0
 397 73 452 81 452 38 c 0
 452 5 432 -3 398 -3 c 0
 362 -3 311 6 250 6 c 0
 194 6 137 -5 96 -5 c 0
 60 -5 35 4 35 36 c 0
 35 77 80 76 96 77 c 2
 136 79 l 2
 169 81 170 94 171 128 c 0
 175 315 178 145 178 736 c 1
 49 737 l 2
 36 737 28 741 28 778 c 0
EndSplineSet
Ligature2: "liga subtable" f l
LCarets2: 1 0 
EndChar

StartChar: f_f_i
Encoding: 65539 -1 58
Width: 1434
VWidth: 0
Flags: HW
HStem: 1 78<331.459 468.862 519.276 638.219 798.137 945.982 986.081 1122.07 1313 1399.86> 739 91<57.032 198 334 650 792 1119.45> 1288 93<464.138 653.601> 1325 95<900.71 1096.68>
VStem: 184 143<92.8123 149 830 1248> 650 141<85.9824 739 830 1123.5> 1131 140<82.9148 731>
LayerCount: 3
Fore
SplineSet
41 40 m 0
 41 126 184 41 184 158 c 0
 184 461 198 415 198 739 c 1
 81 739 l 2
 68 739 57 752 57 786 c 0
 57 823 68 830 81 830 c 2
 202 830 l 1
 202 1184 408 1381 649 1381 c 0xee
 756 1381 821 1319 821 1319 c 1
 916 1406 990 1420 1079 1420 c 0
 1213 1420 1288 1355 1288 1311 c 0xde
 1288 1291 1273 1230 1200 1230 c 0
 1104 1230 1098 1325 1000 1325 c 0xde
 841 1325 792 1066 792 894 c 2
 792 830 l 1
 1031 835 l 2
 1173 838 1224 842 1250 842 c 0
 1267 842 1277 829 1277 809 c 0
 1277 745 1271 649 1271 165 c 0
 1271 96 1282 83 1313 81 c 2
 1349 79 l 2
 1371 78 1400 80 1400 44 c 0
 1400 3 1379 -7 1342 -7 c 0
 1304 -7 1251 4 1188 4 c 0
 1097 4 1072 0 1038 0 c 0
 1012 0 986 17 986 38 c 0
 986 80 1014 82 1048 82 c 0
 1126 82 1120 82 1125 158 c 0
 1130 241 1131 397 1131 427 c 0
 1131 731 1116 730 1089 731 c 2
 791 739 l 1
 789 200 l 2
 789 72 818 87 897 81 c 0
 922 79 946 70 946 41 c 0
 946 2 921 -6 879 -6 c 0
 868 -6 758 0 719 0 c 0
 641 0 600 -4 570 -4 c 0
 542 -4 519 2 519 35 c 0
 519 76 562 76 571 77 c 0
 629 87 638 76 644 169 c 0
 648 228 650 330 650 499 c 2
 650 739 l 1
 334 739 l 1
 331 546 327 489 327 445 c 2
 327 272 l 2
 327 216 328 177 328 149 c 0
 328 82 355 86 423 79 c 0
 458 75 469 58 469 36 c 0
 469 21 448 1 406 1 c 0
 365 1 308 6 245 6 c 0
 206 6 156 -1 116 -1 c 0
 73 -1 41 7 41 40 c 0
334 830 m 1
 658 830 l 1
 663 933 661 1033 692 1120 c 0
 710 1170 730 1213 730 1213 c 1
 644 1240 585 1288 529 1288 c 0xee
 514 1288 334 1248 334 830 c 1
EndSplineSet
Ligature2: "liga subtable" f f i
LCarets2: 2 0 0 
EndChar

StartChar: f_f_l
Encoding: 65540 -1 59
Width: 1449
VWidth: 0
Flags: HW
HStem: 1 78<312.459 449.862 497.289 631.853 781.057 913.841 952.155 1091.22 1250.95 1382.24> 739 91<18.032 179 315 640 772 997.896> 1298 93<441.912 636.599> 1321 95<871.072 1079.5>
VStem: 165 143<92.8123 149 830 1248> 640 131<80.6172 739 830 1144.31> 1094 153<87.0938 805.899> 1118 139<594.101 1258.83>
LayerCount: 3
Fore
SplineSet
640 739 m 1xdd
 315 739 l 1
 312 546 308 489 308 445 c 2
 308 272 l 2
 308 216 309 177 309 149 c 0
 309 82 336 86 404 79 c 0
 439 75 450 58 450 36 c 0
 450 21 429 1 387 1 c 0
 346 1 289 6 226 6 c 0
 187 6 137 -1 97 -1 c 0
 54 -1 22 7 22 40 c 0
 22 126 165 41 165 158 c 0
 165 461 179 415 179 739 c 1
 42 739 l 2
 29 739 18 752 18 786 c 0
 18 823 29 830 42 830 c 2
 183 830 l 1
 183 1184 376 1391 630 1391 c 0xed
 737 1391 808 1329 808 1329 c 1
 836 1350 914 1416 1054 1416 c 0
 1105 1416 1169 1386 1169 1386 c 1
 1169 1386 1202 1418 1217 1418 c 0
 1242 1418 1257 1397 1257 1366 c 0xdd
 1257 1229 1247 1367 1247 192 c 0
 1247 70 1255 97 1341 79 c 0
 1375 72 1383 50 1383 31 c 0
 1383 16 1371 -10 1329 -10 c 0
 1283 -10 1229 0 1187 0 c 0
 1119 0 1036 -6 1007 -6 c 0
 981 -6 950 5 950 26 c 0
 950 80 1013 74 1058 82 c 0
 1086 87 1092 93 1094 156 c 2xde
 1118 1244 l 1
 1054 1254 1002 1321 941 1321 c 0
 864 1321 802 1190 785 1072 c 0
 773 989 772 913 772 894 c 2
 772 830 l 1
 976 830 l 2
 989 830 998 823 998 792 c 0
 998 753 993 739 970 739 c 2
 771 739 l 1
 771 200 l 2
 771 101 794 83 827 78 c 0
 859 73 914 81 914 38 c 0
 914 5 894 -3 860 -3 c 0
 824 -3 773 6 712 6 c 0
 656 6 599 -5 558 -5 c 0
 522 -5 497 4 497 36 c 0
 497 77 542 76 558 77 c 2
 598 79 l 2
 631 81 632 94 633 128 c 0
 637 315 640 148 640 739 c 1xdd
642 921 m 0
 648 1091 711 1213 711 1213 c 1
 611 1268 566 1298 510 1298 c 0
 456 1298 315 1248 315 830 c 1
 640 830 l 1
 641 848 640 857 642 921 c 0
EndSplineSet
Ligature2: "liga subtable" f f l
LCarets2: 2 0 0 
EndChar

StartChar: f_j
Encoding: 65541 -1 60
Width: 987
VWidth: 870
Flags: HW
HStem: -424 148<411.852 582.288> -5 90<37.2014 175.952 332.526 466.748> 731 104<38.6387 71 618 643.921> 1316 112<473.57 692.5>
VStem: 183 146<87.2241 195 835 1086.7> 646 151<-180.865 -21 661 809>
LayerCount: 3
Fore
SplineSet
37 36 m 0
 37 77 68 84 101 85 c 0
 173 89 175 85 176 131 c 0
 180 318 183 140 183 731 c 1
 57 732 l 2
 44 732 38 741 38 778 c 0
 38 815 52 835 71 835 c 2
 186 835 l 1
 186 1212 429.752865883 1428 647 1428 c 0
 738 1428 809 1384 809 1334 c 0
 809 1297 774 1243 716 1243 c 0
 640 1243 601 1316 534 1316 c 0
 376 1316 330 991 330 894 c 2
 330 835 l 1
 551 835 l 2
 693 835 744 842 770 842 c 0
 787 842 797 829 797 809 c 0
 797 313 789 149 789 -74 c 0
 789 -118 750 -198 712 -241 c 0
 566 -405 550 -424 465 -424 c 0
 406 -424 358 -386 358 -349 c 0
 358 -293 432 -248 453 -248 c 0
 499 -248 517 -276 559 -276 c 0
 621 -276 644 -179 644 -21 c 0
 644 87 646 150 646 661 c 0
 646 694 636 731 618 731 c 2
 329 731 l 1
 329 195 l 2
 329 83 343 93 401 81 c 0
 428 76 467 72 467 46 c 0
 467 6 449 0 412 0 c 0
 371 0 311 8 242 8 c 0
 197 8 141 -5 98 -5 c 0
 63 -5 37 4 37 36 c 0
EndSplineSet
Layer: 2
SplineSet
618 731 m 6xf6
 329 731 l 5
 329 195 l 6
 329 83 343 93 401 81 c 4
 428 76 467 72 467 46 c 4
 467 6 449 0 412 0 c 4
 371 0 311 8 242 8 c 4
 197 8 141 -5 98 -5 c 4
 63 -5 37 4 37 36 c 4
 37 77 68 84 101 85 c 4
 173 89 175 85 176 131 c 4xfa
 180 318 183 140 183 731 c 5
 57 732 l 6
 44 732 38 741 38 778 c 4
 38 815 52 835 71 835 c 6
 191 835 l 5
 191 1287 488 1423 657 1423 c 4
 748 1423 809 1384 809 1334 c 4
 809 1297 784 1248 726 1248 c 4
 650 1248 611 1321 544 1321 c 4
 373 1321 330 999 330 835 c 5
 551 835 l 6
 693 835 744 842 770 842 c 4
 787 842 797 829 797 809 c 4
 797 313 789 149 789 -74 c 4
 789 -118 750 -198 712 -241 c 4
 566 -405 550 -424 465 -424 c 4
 406 -424 358 -386 358 -349 c 4
 358 -293 432 -248 453 -248 c 4
 499 -248 517 -276 559 -276 c 4
 621 -276 644 -179 644 -21 c 4
 644 87 646 150 646 661 c 4
 646 694 636 731 618 731 c 6xf6
EndSplineSet
Ligature2: "liga subtable" f j
LCarets2: 1 0 
EndChar

StartChar: f_f_j
Encoding: 65542 -1 61
Width: 1434
VWidth: 0
Flags: HW
HStem: -424 148<897.852 1068.29> 1 78<331.459 468.862 519.276 638.219 798.137 945.982> 739 91<57.032 198 334 650 792 1121.44> 1288 93<464.138 653.601> 1325 95<900.71 1096.68>
VStem: 184 143<92.8123 149 830 1248> 650 141<85.9824 739 830 1123.5> 1132 150<-180.947 731>
LayerCount: 3
Fore
SplineSet
41 40 m 0
 41 126 184 41 184 158 c 0
 184 461 198 415 198 739 c 1
 81 739 l 2
 68 739 57 752 57 786 c 0
 57 823 68 830 81 830 c 2
 202 830 l 1
 202 1184 408 1381 649 1381 c 0xf7
 756 1381 821 1319 821 1319 c 1
 916 1406 990 1420 1079 1420 c 0
 1213 1420 1288 1355 1288 1311 c 0
 1288 1291 1273 1230 1200 1230 c 0
 1104 1230 1098 1325 1000 1325 c 0
 841 1325 792 1066 792 894 c 2
 792 830 l 1
 1031 835 l 2
 1173 838 1214 842 1240 842 c 0
 1281 842 1282 833 1282 805 c 0
 1282 278 1275 102 1275 -74 c 0
 1275 -118 1236 -198 1198 -241 c 0
 1052 -405 1036 -424 951 -424 c 0
 892 -424 844 -386 844 -349 c 0
 844 -293 918 -248 939 -248 c 0
 985 -248 1003 -276 1045 -276 c 0
 1107 -276 1130 -179 1130 -21 c 0
 1130 71 1132 217 1132 528 c 0
 1132 671 1125 730 1089 731 c 2xef
 791 739 l 1
 789 200 l 2
 789 72 818 87 897 81 c 0
 922 79 946 70 946 41 c 0
 946 2 921 -6 879 -6 c 0
 868 -6 758 0 719 0 c 0
 641 0 600 -4 570 -4 c 0
 542 -4 519 2 519 35 c 0
 519 76 562 76 571 77 c 0
 629 87 638 76 644 169 c 0
 648 228 650 330 650 499 c 2
 650 739 l 1
 334 739 l 1
 331 546 327 489 327 445 c 2
 327 272 l 2
 327 216 328 177 328 149 c 0
 328 82 355 86 423 79 c 0
 458 75 469 58 469 36 c 0
 469 21 448 1 406 1 c 0
 365 1 308 6 245 6 c 0
 206 6 156 -1 116 -1 c 0
 73 -1 41 7 41 40 c 0
334 830 m 1
 658 830 l 1
 663 933 661 1033 692 1120 c 0
 710 1170 730 1213 730 1213 c 1
 644 1240 585 1288 529 1288 c 0
 514 1288 334 1248 334 830 c 1
EndSplineSet
Ligature2: "liga subtable" f f j
LCarets2: 2 0 0 
EndChar

StartChar: c_t
Encoding: 65543 -1 62
Width: 1453
VWidth: 870
Flags: HW
HStem: -23 111<351.859 645.247 1085.48 1252.23> 711 116<1081 1366.67> 746 107<301.207 518.884> 1086 77<717.799 957.27>
VStem: 46 128<299.099 594.234> 556 90<819.343 1020.73> 910 142<121.703 711> 983 98<851.305 1059.41>
LayerCount: 3
Fore
SplineSet
46 359 m 0
 46 457 61 568 121 646 c 0
 250 816 381 853 456 853 c 0xbd
 535 853 561 819 561 819 c 1
 561 819 556 841 556 864 c 0
 556 903 584 1163 840 1163 c 0
 1094 1163 1078 966 1081 827 c 1xdd
 1338 827 l 2
 1356 827 1373 820 1373 805 c 0
 1373 799 1373 802 1370 776 c 0
 1363 704 1330 703 1314 703 c 0
 1301 703 1292 704 1279 704 c 2
 1060 711 l 1
 1057 574 1052 327 1052 313 c 0
 1052 140 1093 93 1161 93 c 0
 1256 93 1297 185 1338 185 c 0
 1347 185 1368 179 1368 154 c 0
 1368 92 1237 -23 1102 -23 c 0
 989 -23 910 32 910 265 c 0
 910 361 920 587 920 694 c 2
 920 711 l 1
 799 711 l 2xde
 777 711 765 712 765 730 c 0
 765 769 983 792 983 966 c 0
 983 1045 946 1086 830 1086 c 0
 671 1086 646 935 646 879 c 0
 646 846 646 822 652 804 c 0
 669 752 709 725 709 692 c 0
 709 655 632 621 623 621 c 0
 553 621 542 746 401 746 c 0
 256 746 174 630 174 472 c 0
 174 313 308 88 482 88 c 0
 671 88 724 162 763 162 c 0
 771 162 787 158 787 136 c 0xbd
 787 82 607 -23 456 -23 c 0
 187 -23 46 152 46 359 c 0
EndSplineSet
Layer: 2
SplineSet
787 136 m 4xbd
 787 82.2265625 606.784375 -23 456 -23 c 4
 187 -23 46 152 46 359 c 4
 46 457 61 568 121 646 c 4
 250 816 381 853 456 853 c 4xbd
 535 853 561 819 561 819 c 5
 561 819 556 841 556 864 c 4
 556 903 584 1163 840 1163 c 4
 1094 1163 1078 966 1081 827 c 5xdd
 1338 827 l 6
 1356 827 1373 820 1373 805 c 4
 1373 799 1373 802 1370 776 c 4
 1363 704 1330 703 1314 703 c 4
 1301 703 1292 704 1279 704 c 6
 1060 711 l 5
 1057 574 1052 319 1052 305 c 4
 1052 132 1093 85 1161 85 c 4
 1256 85 1297 177 1338 177 c 4
 1347 177 1368 171 1368 146 c 4
 1368 84 1237 -31 1102 -31 c 4
 989 -31 910 24 910 257 c 4
 910 353 920 587 920 694 c 6
 920 711 l 5
 799 711 l 6xde
 777 711 765 712 765 730 c 4
 765 769 983 792 983 966 c 4
 983 1045 946 1086 830 1086 c 4
 671 1086 646 935 646 879 c 4
 646 846 646 822 652 804 c 4
 669 752 709 725 709 692 c 4
 709 655 632 621 623 621 c 4
 553 621 542 746 401 746 c 4
 256 746 174 630 174 472 c 4
 174 313 308 88 482 88 c 4
 671 88 724 162 763 162 c 4
 771 162 787 158 787 136 c 4xbd
EndSplineSet
Ligature2: "dlig subtable" c t
LCarets2: 1 6 
EndChar

StartChar: s_t
Encoding: 65544 -1 63
Width: 1325
VWidth: 870
Flags: HMW
HStem: -29 98<208.331 487.696> -23 117<948.826 1124.53> 705 126<1183 1235.7> 751 92<193.868 430.276> 1146 77<576.728 793.334>
VStem: 22 85<160.471 349.412> 67 110<576.088 735.373> 405 88<773.986 1068.6> 501 70<569.816 671.266> 529 109<111.001 282.952> 782 139<120.016 311> 839 104<869.863 1104.39>
LayerCount: 3
Fore
SplineSet
22 97 m 0
 22 114 32 177 32 207 c 0
 32 221 33 258 33 287 c 0
 33 335 50 351 77 351 c 0
 107 351 106 316 107 273 c 0
 108 228 108 173 215 108 c 0
 268 76 328 69 376 69 c 0
 468 69 529 141 529 200 c 0
 529 293 437 313 377 333 c 0
 156 408 67 405 67 596 c 0
 67 714 144 843 320 843 c 0
 374 843 402 831 431 818 c 1
 422 846 405 904 405 937 c 0
 405 1016 469 1223 685 1223 c 0
 949 1223 940 960 943 821 c 1
 1032 824 1201 831 1210 831 c 0
 1227 831 1239 822 1239 806 c 2
 1239 780 l 2
 1239 743.175 1227.85859375 705 1183 705 c 0
 1171 705 1104 706 1081 707 c 2
 926 712 l 1
 923 575 921 325 921 311 c 0
 921 138 958 94 1026 94 c 0
 1114 94 1166 192 1210 192 c 0
 1232 192 1239 171 1239 157 c 0
 1239 113 1126 -23 988 -23 c 0
 867 -23 782 30 782 263 c 2
 782 712 l 1
 655 712 l 2
 624 712 621 727 621 750 c 0
 621 769 650 778 686 791 c 0
 799 832 839 928 839 1001 c 0
 839 1086 782 1146 692 1146 c 0
 521 1146 493 979 493 923 c 0
 493 792.371638191 571 666.400621775 571 611 c 0
 571 591.5 565.6 569 544 569 c 0
 518.2 569 506.517627238 587.033016497 501 608 c 0
 476 705 368 751 301 751 c 0
 256 751 177 749 177 639 c 0
 177 482 638 584 638 265 c 0
 638 44 434 -29 342 -29 c 0
 284 -29 230 -25 114 23 c 0
 41 53 22 57 22 97 c 0
EndSplineSet
Layer: 2
SplineSet
430.8125 818 m 1
 402.104492188 831.248046875 373.795463145 843 320 843 c 0
 144 843 67 714 67 596 c 0xd4
 67 405 156 408 377 333 c 0
 437 313 529 293 529 200 c 0
 529 141 468 69 376 69 c 0
 328 69 268 76 215 108 c 0
 108 173 108 228 107 273 c 0xe4
 106 316 107 351 77 351 c 0
 50 351 33 335 33 287 c 0
 33 258 32 221 32 207 c 0
 32 177 22 114 22 97 c 0
 22 57 41 53 114 23 c 0
 230 -25 284 -29 342 -29 c 0
 434 -29 638 44 638 265 c 0
 638 584 177 482 177 639 c 0xd8
 177 749 256 751 301 751 c 0
 368 751 476 705 501 608 c 0
 507 585 519 570 541 570 c 0
 566.92465572 570 552.809483875 573 555 573 c 0
 566 573 571 595 571 611 c 0
 571 636 555 662 548 693 c 0
 535.90320836 743.806524888 518.318952921 775.589841938 506.310546875 818 c 1
 498.46484375 845.708007812 493 877.951712348 493 923 c 0
 493 979 521 1146 692 1146 c 0
 782 1146 839 1086 839 1001 c 0
 839 928 799 832 686 791 c 0
 650 778 621 769 621 750 c 0
 621 727 624 712 655 712 c 2
 782 712 l 1
 782 251 l 2
 782 18 867 -35 988 -35 c 0
 1126 -35 1239 101 1239 145 c 0
 1239 159 1232 180 1210 180 c 0
 1166 180 1114 82 1026 82 c 0
 958 82 921 126 921 299 c 0
 921 313 923 575 926 712 c 1
 1081 707 l 2
 1104 706 1171 705 1183 705 c 0
 1206 705 1214 708 1224 723 c 0
 1236 740 1239 765 1239 780 c 2
 1239 806 l 2
 1239 822 1227 831 1210 831 c 0
 1201 831 1032 824 943 821 c 1
 940 960 949 1223 685 1223 c 0
 469 1223 405 1016 405 937 c 0
 405 904.428679764 421.987304688 846.102539062 430.8125 818 c 1
1026 82 m 0
 1114 82 1166 180 1210 180 c 0
 1232 180 1239 159 1239 145 c 0
 1239 101 1126 -35 988 -35 c 0
 867 -35 782 18 782 251 c 2
 782 712 l 1
 655 712 l 2
 624 712 621 727 621 750 c 0
 621 769 650 778 686 791 c 0
 799 832 839 928 839 1001 c 0
 839 1086 782 1146 692 1146 c 0
 521 1146 493 979 493 923 c 0
 493 809 528 777 548 693 c 0
 555 662 571 636 571 611 c 0
 571 595 566 573 555 573 c 0
 500 573 512 621 489 663 c 0
 465 706 380 750 300 750 c 0
 229 750 177 710 177 647 c 0
 177 549 263 540 371 511 c 0
 494 479 647 441 647 241 c 0
 647 82 507 -24 332 -24 c 0
 236 -24 42 29 42 99 c 0
 42 122 49 256 49 279 c 0
 49 329 69 341 85 341 c 0
 143 341 110 264 137 189 c 1
 169 104 287 65 378 65 c 0
 508 65 552 147 552 219 c 0
 552 275 510 303 347 349 c 0
 296 364 263 375 241 379 c 0
 162 394 78 432 78 601 c 0
 78 665 141 839 313 839 c 0
 404 839 436 802 436 802 c 1
 436 802 405 893 405 937 c 0
 405 1016 469 1223 685 1223 c 0
 949 1223 940 960 943 821 c 1
 1032 824 1201 831 1210 831 c 0
 1227 831 1239 822 1239 806 c 2
 1239 780 l 2
 1239 765 1236 740 1224 723 c 0
 1214 708 1206 705 1183 705 c 0
 1171 705 1104 706 1081 707 c 2
 926 712 l 1
 923 575 921 313 921 299 c 0
 921 126 958 82 1026 82 c 0
EndSplineSet
Ligature2: "dlig subtable" s t
LCarets2: 1 0 
EndChar

StartChar: f_b
Encoding: 65545 -1 64
Width: 1507
VWidth: 1000
Flags: HW
HStem: -12 75<835.106 1149.58> -5 82<35.0327 169.853 319.057 451.942> 736 99<28.252 178 310 535.584> 741 120<880.693 1141.64> 1321 95<414.586 617.5>
VStem: 178 131<80.6172 736 835 1147.22> 632 156<103.107 501.286> 648 140<501.286 692.909 730 1263.21> 1299 143<244.275 572.128>
LayerCount: 3
Fore
SplineSet
28 778 m 0
 28 815 33 835 52 835 c 2
 178 835 l 1
 178 1088 224 1260 402 1365 c 0
 466 1403 530 1416 592 1416 c 0
 643 1416 707 1386 707 1386 c 1
 707 1386 740 1418 755 1418 c 0
 791 1418 794 1379 794 1357 c 2
 794 1334 l 2
 794 1252 793 968 784 730 c 1x6d80
 800 745 872 861 1050 861 c 0
 1245 861 1442 728 1442 450 c 0
 1442 252 1328 -12 978 -12 c 0
 868 -12 800 5 741 5 c 0
 698 5 694 -36 667 -36 c 0
 648 -36 632 -28 632 5 c 0x9e80
 632 26 648 498 648 969 c 0
 648 1050 656 1244 656 1244 c 1
 592 1254 540 1321 479 1321 c 0
 402 1321 340 1190 323 1072 c 0
 311 989 310 913 310 894 c 2
 310 835 l 1
 514 835 l 2
 527 835 536 828 536 797 c 0
 536 758 531 736 508 736 c 2
 309 736 l 1
 309 200 l 2
 309 101 332 83 365 78 c 0
 397 73 452 81 452 38 c 0
 452 5 432 -3 398 -3 c 0
 362 -3 311 6 250 6 c 0
 194 6 137 -5 96 -5 c 0
 60 -5 35 4 35 36 c 0
 35 77 80 76 96 77 c 2
 136 79 l 2
 169 81 170 94 171 128 c 0
 175 315 178 145 178 736 c 1
 49 737 l 2
 36 737 28 741 28 778 c 0
788 245 m 2
 788 124 820 63 986 63 c 0
 1204 63 1299 213 1299 372 c 0
 1299 584 1179 741 981 741 c 0
 916 741 873 721 844 702 c 0
 789 665 788 607 788 455 c 2
 788 245 l 2
EndSplineSet
Ligature2: "liga subtable" f b
LCarets2: 1 0 
EndChar

StartChar: f_h
Encoding: 65546 -1 65
Width: 1550
VWidth: 994
Flags: HW
HStem: -5 84<35.0327 169.853 319.057 451.96 504.156 640.069 1370.95 1464.43> 736 99<28.252 178 310 535.584> 738 118<879.972 1111.6> 1321 95<414.586 617.5>
VStem: 178 131<80.6172 736 835 1147.22> 649 145<81.6055 675.909 703 1263.21> 1221 143<82.2504 616.527>
LayerCount: 3
Fore
SplineSet
28 778 m 0
 28 815 33 835 52 835 c 2
 178 835 l 1
 178 1088 224 1260 402 1365 c 0
 466 1403 530 1416 592 1416 c 0
 643 1416 707 1386 707 1386 c 1
 707 1386 738 1419 757 1419 c 0xde
 791 1419 794 1393 794 1374 c 2
 794 1363 l 2
 794 1328 794 1260 785 703 c 1
 829 765 871 856 1050 856 c 0
 1124 856 1307 818 1352 560 c 0
 1362 500 1361 355 1364 271 c 0
 1369 89 1356 82 1453 78 c 0
 1493 76 1509 61 1509 30 c 0
 1509 -13 1485 -14 1465 -14 c 0
 1454 -14 1367 2 1270 2 c 0
 1182 2 1125 -6 1105 -6 c 0
 1078 -6 1054 2 1054 33 c 0
 1054 81 1104 74 1164 80 c 0
 1211 84 1221 99 1221 310 c 0
 1221 574 1179 652 1092 708 c 0
 1059 730 1022 738 986 738 c 0xbe
 798 738 794 600 794 417 c 2
 794 359 l 2
 794 278 795 235 795 195 c 0
 795 100 797 82 861 77 c 0
 901 74 954 76 954 35 c 0
 954 -8 933 -9 913 -9 c 0
 875 -9 813 6 716 6 c 0
 613 6 557 -2 540 -2 c 0
 526 -2 504 -1 504 32 c 0
 504 75 528 79 559 79 c 0
 648 79 649 82 649 295 c 0
 649 684 654 342 654 1079 c 0
 654 1244 656 1236 656 1244 c 1
 592 1254 540 1321 479 1321 c 0
 402 1321 340 1190 323 1072 c 0
 311 989 310 913 310 894 c 2
 310 835 l 1
 514 835 l 2
 527 835 536 828 536 797 c 0
 536 758 531 736 508 736 c 2
 309 736 l 1
 309 200 l 2
 309 101 332 83 365 78 c 0
 397 73 452 81 452 38 c 0
 452 5 432 -3 398 -3 c 0
 362 -3 311 6 250 6 c 0
 194 6 137 -5 96 -5 c 0
 60 -5 35 4 35 36 c 0
 35 77 80 76 96 77 c 2
 136 79 l 2
 169 81 170 94 171 128 c 0
 175 315 178 145 178 736 c 1
 49 737 l 2
 36 737 28 741 28 778 c 0
EndSplineSet
Ligature2: "liga subtable" f h
LCarets2: 1 0 
EndChar

StartChar: f_k
Encoding: 65547 -1 66
Width: 1430
VWidth: 870
Flags: HMW
HStem: -4 71<35.2896 169.086 325.563 451.637 549.181 646.227 803.619 940.983 1275.69 1384.99> 736 99<28.252 178 310 535.584 1148.14 1337.96> 1321 95<414.586 617.5>
VStem: 178 131<80.6172 736 835 1147.22> 651 138<77.2483 329 432 1261.71>
LayerCount: 3
Fore
SplineSet
28 778 m 0
 28 815 33 835 52 835 c 2
 178 835 l 1
 178 1088 224 1260 402 1365 c 0
 466 1403 530 1416 592 1416 c 0
 643 1416 707 1386 707 1386 c 1
 729 1404 737 1418 760 1418 c 0
 788 1418 794 1384 794 1364 c 2
 787 432 l 1
 931 583 1044 683 1044 722 c 0
 1044 775 954 754 954 799 c 0
 954 807 958 827 1008 827 c 0
 1022 827 1048 823 1142 823 c 0
 1230 823 1273 827 1289 827 c 0
 1319 827 1341 824 1341 797 c 0
 1341 758 1307 766 1234 747 c 0
 1185 734 1102 653 1038 587 c 2
 946 492 l 1
 1143 243 l 1
 1287 64 1315 76 1350 67 c 0
 1365 64 1385 53 1385 31 c 0
 1385 16 1369 -4 1327 -4 c 0
 1296 -4 1250 0 1172 0 c 0
 1158 0 1059 -4 1030 -4 c 0
 1004 -4 977 7 977 28 c 0
 977 89 1072 47 1072 102 c 0
 1072 155 893 366 863 405 c 1
 789 329 l 1
 793 82 779 78 895 68 c 0
 917 66 941 53 941 31 c 0
 941 16 926 -4 884 -4 c 0
 821 -4 786 0 728 0 c 0
 694 0 639 -4 602 -4 c 0
 576 -4 549 7 549 28 c 0
 549 64 577 63 594 67 c 0
 651 82 651 93 651 177 c 2
 656 1244 l 1
 592 1254 540 1321 479 1321 c 0
 402 1321 340 1190 323 1072 c 0
 311 989 310 913 310 894 c 2
 310 835 l 1
 514 835 l 2
 527 835 536 828 536 797 c 0
 536 758 531 736 508 736 c 2
 309 736 l 1
 309 200 l 2
 309 101 332 83 365 78 c 0
 397 73 452 81 452 38 c 0
 452 5 432 -3 398 -3 c 0
 362 -3 311 6 250 6 c 0
 194 6 137 -5 96 -5 c 0
 60 -5 35 4 35 36 c 0
 35 77 80 76 96 77 c 2
 136 79 l 2
 169 81 170 94 171 128 c 0
 175 315 178 145 178 736 c 1
 49 737 l 2
 36 737 28 741 28 778 c 0
EndSplineSet
Ligature2: "liga subtable" f k
LCarets2: 1 0 
EndChar

StartChar: f_f_b
Encoding: 65548 -1 67
Width: 1959
VWidth: 0
Flags: HW
HStem: -12 75<1295.11 1609.58> 1 78<312.459 449.862 497.289 631.853 781.057 913.841> 739 91<18.032 179 315 640 772 997.896> 741 120<1340.69 1601.64> 1298 93<441.912 636.599> 1321 95<871.072 1079.5>
VStem: 165 143<92.8123 149 830 1248> 640 131<80.6172 739 830 1144.31> 1092 156<103.107 501.286> 1108 140<501.286 692.909 730 1263.21> 1759 143<244.275 572.128>
LayerCount: 3
Fore
SplineSet
1248 245 m 2x93a0
 1248 124 1280 63 1446 63 c 0
 1664 63 1759 213 1759 372 c 0
 1759 584 1639 741 1441 741 c 0
 1376 741 1333 721 1304 702 c 0
 1249 665 1248 607 1248 455 c 2
 1248 245 l 2x93a0
1169 1386 m 1
 1169 1386 1200 1418 1215 1418 c 0
 1251 1418 1254 1379 1254 1357 c 2
 1254 1334 l 2
 1254 1252 1253 968 1244 730 c 1
 1260 745 1332 861 1510 861 c 0
 1705 861 1902 728 1902 450 c 0
 1902 252 1788 -12 1438 -12 c 0
 1328 -12 1260 5 1201 5 c 0
 1158 5 1154 -36 1127 -36 c 0
 1108 -36 1092 -28 1092 5 c 0x97a0
 1092 26 1108 498 1108 969 c 0
 1108 1050 1116 1244 1116 1244 c 1
 1052 1254 1002 1321 941 1321 c 0x9760
 864 1321 802 1190 785 1072 c 0
 773 989 772 913 772 894 c 2
 772 830 l 1
 976 830 l 2
 989 830 998 823 998 792 c 0
 998 753 993 739 970 739 c 2
 771 739 l 1
 771 200 l 2
 771 101 794 83 827 78 c 0
 859 73 914 81 914 38 c 0
 914 5 894 -3 860 -3 c 0
 824 -3 773 6 712 6 c 0
 656 6 599 -5 558 -5 c 0
 522 -5 497 4 497 36 c 0
 497 77 542 76 558 77 c 2
 598 79 l 2
 631 81 632 94 633 128 c 0
 637 315 640 148 640 739 c 1
 315 739 l 1
 312 546 308 489 308 445 c 2
 308 272 l 2
 308 216 309 177 309 149 c 0
 309 82 336 86 404 79 c 0
 439 75 450 58 450 36 c 0
 450 21 429 1 387 1 c 0
 346 1 289 6 226 6 c 0
 187 6 137 -1 97 -1 c 0
 54 -1 22 7 22 40 c 0
 22 126 165 41 165 158 c 0
 165 461 179 415 179 739 c 1
 42 739 l 2
 29 739 18 752 18 786 c 0
 18 823 29 830 42 830 c 2
 183 830 l 1
 183 1184 376 1391 630 1391 c 0x6b60
 737 1391 808 1329 808 1329 c 1
 836 1350 914 1416 1054 1416 c 0x0760
 1105 1416 1169 1386 1169 1386 c 1
642 921 m 0
 648 1091 711 1213 711 1213 c 1
 611 1268 566 1298 510 1298 c 0
 456 1298 315 1248 315 830 c 1
 640 830 l 1x2b20
 641 848 640 857 642 921 c 0
EndSplineSet
Ligature2: "liga subtable" f f b
LCarets2: 2 0 0 
EndChar

StartChar: f_f_h
Encoding: 65549 -1 68
Width: 2024
VWidth: 870
Flags: HW
HStem: 1 78<312.459 449.862 497.289 631.853 781.057 913.841 948.431 1100.21 1835.62 1928.43> 738 118<1343.97 1575.6> 739 91<18.032 179 315 640 772 997.896> 1298 93<441.912 636.599> 1321 95<871.072 1079.5>
VStem: 165 143<92.8123 149 830 1248> 640 131<80.6172 739 830 1144.31> 1113 145<84.3171 675.909 703 1261.71> 1685 143<82.2504 616.527>
LayerCount: 3
Fore
SplineSet
1217 1418 m 0x8f80
 1258 1418 1258 1394 1258 1372 c 2
 1258 1372 1251 771 1249 703 c 1
 1293 765 1335 856 1514 856 c 0
 1588 856 1771 818 1816 560 c 0
 1826 500 1825 355 1828 271 c 0
 1833 89 1820 82 1917 78 c 0
 1957 76 1973 61 1973 30 c 0
 1973 -13 1949 -14 1929 -14 c 0
 1918 -14 1831 2 1734 2 c 0
 1646 2 1589 -6 1569 -6 c 0
 1542 -6 1518 2 1518 33 c 0
 1518 81 1568 74 1628 80 c 0
 1675 84 1685 99 1685 310 c 0
 1685 574 1643 652 1556 708 c 0
 1523 730 1486 738 1450 738 c 0
 1262 738 1258 600 1258 417 c 2
 1258 359 l 2
 1258 278 1259 235 1259 195 c 0
 1259 100 1261 82 1325 77 c 0
 1365 74 1418 76 1418 35 c 0
 1418 -8 1397 -9 1377 -9 c 0
 1339 -9 1277 6 1180 6 c 0
 1077 6 1001 -2 984 -2 c 0
 970 -2 948 -1 948 32 c 0
 948 75 972 79 1003 79 c 0
 1109 79 1113 82 1113 295 c 0
 1113 654 1118 349 1118 1244 c 1
 1054 1254 1002 1321 941 1321 c 0xcf80
 864 1321 802 1190 785 1072 c 0
 773 989 772 913 772 894 c 2
 772 830 l 1
 976 830 l 2
 989 830 998 823 998 792 c 0
 998 753 993 739 970 739 c 2
 771 739 l 1
 771 200 l 2
 771 101 794 83 827 78 c 0
 859 73 914 81 914 38 c 0
 914 5 894 -3 860 -3 c 0
 824 -3 773 6 712 6 c 0
 656 6 599 -5 558 -5 c 0
 522 -5 497 4 497 36 c 0
 497 77 542 76 558 77 c 2
 598 79 l 2
 631 81 632 94 633 128 c 0
 637 315 640 148 640 739 c 1
 315 739 l 1
 312 546 308 489 308 445 c 2
 308 272 l 2
 308 216 309 177 309 149 c 0
 309 82 336 86 404 79 c 0
 439 75 450 58 450 36 c 0
 450 21 429 1 387 1 c 0
 346 1 289 6 226 6 c 0
 187 6 137 -1 97 -1 c 0
 54 -1 22 7 22 40 c 0
 22 126 165 41 165 158 c 0
 165 461 179 415 179 739 c 1
 42 739 l 2
 29 739 18 752 18 786 c 0
 18 823 29 830 42 830 c 2
 183 830 l 1
 183 1184 376 1391 630 1391 c 0xb780
 737 1391 808 1329 808 1329 c 1
 836 1350 914 1416 1054 1416 c 0
 1105 1416 1169 1386 1169 1386 c 1
 1169 1386 1202 1418 1217 1418 c 0x8f80
642 921 m 0
 648 1091 711 1213 711 1213 c 1
 611 1268 566 1298 510 1298 c 0
 456 1298 315 1248 315 830 c 1
 640 830 l 1xb780
 641 848 640 857 642 921 c 0
EndSplineSet
Ligature2: "liga subtable" f f h
LCarets2: 2 0 0 
EndChar

StartChar: f_f_k
Encoding: 65550 -1 69
Width: 1924
VWidth: 0
Flags: HW
HStem: -4 71<319.14 449.246 497.29 631.086 787.563 913.637 1010.18 1107.23 1264.62 1401.98 1736.69 1845.99> 739 91<18.032 179 315 640 772 997.896 1612.38 1799.97> 1298 93<441.912 636.599> 1321 95<871.072 1079.5>
VStem: 165 143<92.8123 149 830 1248> 640 131<80.6172 739 830 1144.31> 1112 138<77.2483 329 432 1261.71> 1505 297<702.5 810.5>
LayerCount: 3
Fore
SplineSet
1217 1418 m 0xdf
 1253 1418 1255 1384 1255 1364 c 2
 1248 432 l 1
 1392 583 1505 683 1505 722 c 0
 1505 775 1415 754 1415 799 c 0
 1415 807 1419 827 1469 827 c 0
 1483 827 1509 823 1603 823 c 0
 1691 823 1734 827 1750 827 c 0
 1780 827 1802 824 1802 797 c 0
 1802 758 1768 766 1695 747 c 0
 1646 734 1563 653 1499 587 c 2
 1407 492 l 1
 1604 243 l 1
 1748 64 1776 76 1811 67 c 0
 1826 64 1846 53 1846 31 c 0
 1846 16 1830 -4 1788 -4 c 0
 1757 -4 1711 0 1633 0 c 0
 1619 0 1520 -4 1491 -4 c 0
 1465 -4 1438 7 1438 28 c 0
 1438 89 1533 47 1533 102 c 0
 1533 155 1354 366 1324 405 c 1
 1250 329 l 1
 1254 82 1240 78 1356 68 c 0
 1378 66 1402 53 1402 31 c 0
 1402 16 1387 -4 1345 -4 c 0
 1282 -4 1247 0 1189 0 c 0
 1155 0 1100 -4 1063 -4 c 0
 1037 -4 1010 7 1010 28 c 0
 1010 64 1038 63 1055 67 c 0
 1112 82 1112 93 1112 177 c 2
 1118 1244 l 1
 1054 1254 1002 1321 941 1321 c 0xdf
 864 1321 802 1190 785 1072 c 0
 773 989 772 913 772 894 c 2
 772 830 l 1
 976 830 l 2
 989 830 998 823 998 792 c 0
 998 753 993 739 970 739 c 2
 771 739 l 1
 771 200 l 2
 771 101 794 83 827 78 c 0
 859 73 914 81 914 38 c 0
 914 5 894 -3 860 -3 c 0
 824 -3 773 6 712 6 c 0
 656 6 599 -5 558 -5 c 0
 522 -5 497 4 497 36 c 0
 497 77 542 76 558 77 c 2
 598 79 l 2
 631 81 632 94 633 128 c 0
 637 315 640 148 640 739 c 1
 315 739 l 1
 312 546 308 489 308 445 c 2
 308 272 l 2
 308 216 309 177 309 149 c 0
 309 82 336 86 404 79 c 0
 439 75 450 58 450 36 c 0
 450 21 429 1 387 1 c 0
 346 1 289 6 226 6 c 0
 187 6 137 -1 97 -1 c 0
 54 -1 22 7 22 40 c 0
 22 126 165 41 165 158 c 0
 165 461 179 415 179 739 c 1
 42 739 l 2
 29 739 18 752 18 786 c 0
 18 823 29 830 42 830 c 2
 183 830 l 1
 183 1184 376 1391 630 1391 c 0xef
 737 1391 808 1329 808 1329 c 1
 836 1350 914 1416 1054 1416 c 0
 1105 1416 1169 1386 1169 1386 c 1
 1169 1386 1202 1418 1217 1418 c 0xdf
642 921 m 0
 648 1091 711 1213 711 1213 c 1
 611 1268 566 1298 510 1298 c 0xef
 456 1298 315 1248 315 830 c 1
 640 830 l 1
 641 848 640 857 642 921 c 0
EndSplineSet
Ligature2: "liga subtable" f f k
LCarets2: 2 0 0 
EndChar

StartChar: comma
Encoding: 44 44 70
Width: 468
VWidth: 0
Flags: HW
LayerCount: 3
Fore
SplineSet
91 115 m 0
 91 179 150.448493534 228 216 228 c 0
 338 228 392 120 392 0 c 0
 392 -136.718689286 276 -268 164 -268 c 0
 124.216100469 -268 102.876373043 -239.894267381 102.876373043 -216.197724264 c 0
 102.876373043 -198.927925688 114.210639598 -184 138 -184 c 0
 225.386925885 -184 278 -123.73828125 278 -69 c 0
 278 -36.9208984375 265.996878943 -6.34475507447 225 0 c 0
 141 13 91 47.9921875 91 115 c 0
EndSplineSet
EndChar
